<svg width="24" height="24" xmlns="http://www.w3.org/2000/svg"><g fill="none" fill-rule="evenodd"><path d="M3.999 0H17a7 7 0 0 1 6.908 8.137l-1.095 6.65A11 11 0 0 1 11.959 24H4.045a4 4 0 0 1-4-3.989l-.046-16a4 4 0 0 1 4-4.011z" fill="#007EFF"/><path d="M14.006 17.873l-4.703-3.59L2 20h9.946c3.726 0 7.113-2.524 8.198-6.38l.715-2.61C21.674 6.826 19.135 4 15.186 4h-1.18v5.01h5.416l-5.416 4.13v4.733zM8.706 9h.896l.914-1H7.757zM6.948 7h4.404l.911-1H6zM4 4l.956 1.021h8.066L13.983 4z" fill="#57AAFF"/></g></svg>