<svg width="16" height="16" fill="none" xmlns="http://www.w3.org/2000/svg"><path fill-rule="evenodd" clip-rule="evenodd" d="M4.111 8.35V6.872h1.556V8.35H4.11zm3.111-1.478h1.556V8.35H7.222V6.872zm3.111 1.478V6.872h1.556V8.35h-1.556zm2.334-6.65h.777C14.3 1.7 15 2.365 15 3.178v10.344c0 .813-.7 1.478-1.556 1.478H2.556C1.692 15 1 14.335 1 13.522l.008-10.344c0-.813.684-1.478 1.548-1.478h.777V.222H4.89V1.7h6.222V.222h1.556V1.7zM2.556 13.522h10.888V5.394H2.556v8.128zm3.11-2.216V9.828H4.112v1.478h1.556zm1.556-1.478h1.556v1.478H7.222V9.828zm4.667 0h-1.556v1.478h1.556V9.828z" fill="currentColor"/></svg>