<svg width="16" height="16" fill="currentColor" xmlns="http://www.w3.org/2000/svg"><path d="M10.575 2c0 1.12-.88 2-2 2s-2-.88-2-2c.08-1.12.96-2 2-2 1.12 0 2 .88 2 2zM9.53 14.863c0 .606-.523 1.137-1.12 1.137-.597 0-1.119-.53-1.119-1.137s.522-1.138 1.12-1.138c.671 0 1.119.53 1.119 1.138zM5.575 3.792c0 .91-.747 1.668-1.642 1.668-.896 0-1.642-.759-1.642-1.668 0-.91.746-1.669 1.642-1.669.895 0 1.642.759 1.642 1.669zm8.283 9.175c0 .53-.448.91-.895.91-.523 0-.896-.455-.896-.91 0-.531.448-.91.896-.91.522 0 .895.379.895.91zM3.485 8.341c0 .834-.672 1.517-1.492 1.517C1.172 9.858.5 9.175.5 8.34c0-.834.672-1.516 1.493-1.516.895.076 1.492.682 1.492 1.516zm12.09 0c0 .38-.299.759-.747.759a.754.754 0 0 1-.746-.759c0-.379.298-.758.746-.758s.747.38.747.758zM3.037 12.057c-.522.53-.522 1.365 0 1.82.448.53 1.269.53 1.791 0 .523-.531.523-1.365 0-1.82-.522-.531-1.343-.531-1.79 0zM13.62 3.53a.515.515 0 0 1-.523.532.514.514 0 0 1-.522-.531c0-.304.224-.531.522-.531.335 0 .522.227.522.53z"/></svg>