<svg width="32" height="32" fill="none" xmlns="http://www.w3.org/2000/svg"><path fill-rule="evenodd" clip-rule="evenodd" d="M25.231 15.239c.936 0 1.725-.316 2.377-.947.65-.631.974-1.41.974-2.333 0-.924-.324-1.708-.974-2.35-.652-.642-1.441-.963-2.377-.963a3.25 3.25 0 0 0-1.281.253 3.32 3.32 0 0 0-1.778 1.776c-.17.404-.257.833-.257 1.284 0 .45.087.88.256 1.286.173.404.413.754.718 1.047.31.293.663.524 1.06.694.4.167.827.253 1.282.253zm-8.1 7.54c.774 0 1.43-.265 1.966-.794.535-.53.802-1.18.802-1.944a2.68 2.68 0 0 0-.802-1.961 2.663 2.663 0 0 0-1.966-.812c-.364 0-.695.067-.991.202l1.674.914c.32.135.581.349.787.641.205.295.308.632.308 1.016 0 .495-.171.913-.514 1.25a1.727 1.727 0 0 1-1.264.508c-.411 0-.753-.102-1.026-.304l-1.708-.947a2.58 2.58 0 0 0 .939 1.606 2.768 2.768 0 0 0 1.795.625zM5.646 11.959c.366 0 .707.102 1.026.304l1.71.947a2.743 2.743 0 0 0-.976-1.606 2.704 2.704 0 0 0-1.76-.625c-.776 0-1.434.265-1.982.794a2.606 2.606 0 0 0-.82 1.943c0 .768.274 1.42.82 1.962.548.54 1.206.812 1.982.812.343 0 .672-.067.992-.204l-1.71-.912a1.793 1.793 0 0 1-.784-.642 1.724 1.724 0 0 1-.31-1.016c0-.494.179-.912.53-1.25.355-.338.78-.507 1.282-.507zM28.7 8.528c.445.439.8.952 1.06 1.537.263.587.394 1.218.394 1.894 0 .677-.131 1.307-.394 1.894a4.992 4.992 0 0 1-1.06 1.537 4.85 4.85 0 0 1-1.554 1.033 4.909 4.909 0 0 1-1.915.371h-.033l-4.273 3.28a3.46 3.46 0 0 1-.308 1.453 3.92 3.92 0 0 1-.82 1.184 3.99 3.99 0 0 1-1.196.812 3.584 3.584 0 0 1-1.47.305c-.981 0-1.822-.311-2.528-.931a3.553 3.553 0 0 1-1.23-2.316l-6.224-3.448a5.807 5.807 0 0 1-.99.253 3.072 3.072 0 0 1-1.06-.016 3.805 3.805 0 0 1-1.366-.525c-.41-.26-.753-.58-1.025-.963a3.927 3.927 0 0 1-.6-1.286 3.293 3.293 0 0 1-.05-1.453c.068-.497.234-.947.495-1.353.263-.406.587-.75.974-1.031a3.608 3.608 0 0 1 1.298-.592c.479-.114.98-.135 1.504-.067.868.157 1.58.547 2.138 1.167.556.62.87 1.335.939 2.145l5.777 3.415a3.804 3.804 0 0 1 1.948-.54h.035l3.179-4.428a4.941 4.941 0 0 1 .427-1.861 4.95 4.95 0 0 1 1.042-1.521 4.806 4.806 0 0 1 1.537-1.015 4.82 4.82 0 0 1 1.88-.371c.683 0 1.321.13 1.915.388A5.09 5.09 0 0 1 28.7 8.528zm-4.99 1.91a2.06 2.06 0 0 1 1.522-.643c.591 0 1.105.214 1.539.643.433.428.648.934.648 1.521 0 .585-.215 1.088-.648 1.504a2.146 2.146 0 0 1-1.54.627 2.085 2.085 0 0 1-1.52-.627 2.038 2.038 0 0 1-.633-1.504c0-.587.21-1.093.633-1.52z" fill="currentColor"/></svg>
