<svg xmlns="http://www.w3.org/2000/svg" width="425" height="72"><g fill="none" fill-rule="evenodd"><path fill="#E0E5EA" d="M0 67.5C0 65.015 2.011 63 4.491 63H40v9H4.491A4.499 4.499 0 0 1 0 67.5zM52.208 56H80v16H40v-8.994l8.192-5.739A7 7 0 0 1 52.208 56zm40.002-7H120v23H80V56.016l8.19-5.746A7 7 0 0 1 92.21 49zm200.002-35H320v58h-40V21.02l8.19-5.75a7 7 0 0 1 4.022-1.27zM132.206 42H160v30h-40V48.997l8.193-5.732A7 7 0 0 1 132.206 42zm40.001-7H200v37h-40V42.002l8.192-5.736A7 7 0 0 1 172.207 35zm40.023-7H240v44h-40V35.095l8.18-5.804A7 7 0 0 1 212.23 28zm39.997-7H280v51h-40V28.08l8.182-5.793A7 7 0 0 1 252.227 21zm79.988-14H360v65h-40V14.034l8.188-5.76A7 7 0 0 1 332.215 7zm40.01-7h28.054c13.254 0 24 10.745 24 24a24 24 0 0 1-.382 4.264l-2.403 13.31C418.314 59.188 402.98 72 385.082 72H360V7.07l8.184-5.786A7 7 0 0 1 372.224 0z"/><path d="M393.007 49.038l-11.628-8.182-20.246 14.164h28.857c9 0 17.815-6.886 20.435-15.677l1.727-8.363c1.97-9.538-4.165-15.98-13.702-15.98h-5.443v12.998h15.23l-15.23 10.25v10.79zM374.72 27.852h7.456l2.358-2.831h-12.093zm-3.812-4.877H386.3l2.358-2.83H368.63zm-6.263-7.968l2.279 3.001h23.5l2.359-3.001z" fill="#F2F6F9"/></g></svg>