<svg xmlns="http://www.w3.org/2000/svg" width="424" height="72"><defs><linearGradient id="a" x1="3.377%" y1="80.802%" y2="80.731%"><stop offset="0%" stop-color="#CCF579"/><stop offset="15.328%" stop-color="#FFD73C"/><stop offset="27.242%" stop-color="#FFA552"/><stop offset="39.089%" stop-color="#FD6363"/><stop offset="52.438%" stop-color="#D07EFE"/><stop offset="70.317%" stop-color="#7793FB"/><stop offset="82.144%" stop-color="#72B9FC"/><stop offset="100%" stop-color="#61D6FE"/></linearGradient></defs><g fill="none" fill-rule="evenodd"><path d="M0 67.5C0 65.015 2.011 63 4.491 63H40v9H4.491A4.499 4.499 0 0 1 0 67.5zM52.208 56H80v16H40v-8.994l8.192-5.739A7 7 0 0 1 52.208 56zm40.003-7H120v23H80V56.016l8.19-5.746A7 7 0 0 1 92.21 49zm200-35H320v58h-40V21.02l8.19-5.75a7 7 0 0 1 4.022-1.27zM132.207 42H160v30h-40V48.997l8.193-5.732A7 7 0 0 1 132.206 42zm40.001-7H200v37h-40V42.002l8.192-5.736A7 7 0 0 1 172.207 35zm40.024-7H240v44h-40V35.095l8.18-5.804A7 7 0 0 1 212.23 28zm39.996-7H280v51h-40V28.08l8.182-5.793A7 7 0 0 1 252.227 21zm79.988-14H360v65h-40V14.034l8.188-5.76A7 7 0 0 1 332.215 7zm40.01-7h28.054c13.254 0 24 10.745 24 24a24 24 0 0 1-.382 4.264l-2.403 13.31C418.314 59.188 402.98 72 385.082 72H360V7.07l8.184-5.786A7 7 0 0 1 372.224 0z"/><path fill="url(#a)" d="M92.153 49h27.768v23H79.947V56.016l8.184-5.745A7 7 0 0 1 92.153 49zm199.87-35h27.767v58h-39.974V21.02L288 15.273A7 7 0 0 1 292.023 14zM132.122 42h27.773v30H119.92V48.997l8.186-5.731A7 7 0 0 1 132.122 42zm39.975-7h27.772v37h-39.974V42.002l8.185-5.735A7 7 0 0 1 172.097 35zm39.997-7h27.748v44H199.87V35.095l8.173-5.803A7 7 0 0 1 212.094 28zm39.97-7h27.752v51h-39.974V28.08l8.175-5.792A7 7 0 0 1 252.064 21zM0 67.5C0 65.015 2.01 63 4.508 63h35.466v9H4.508A4.507 4.507 0 0 1 0 67.5zM52.177 56h27.77v16H39.974v-8.994l8.184-5.738A7 7 0 0 1 52.177 56zM332 7h27.764v65H319.79V14.034l8.18-5.758A7 7 0 0 1 332 7zm39.983-7H400c13.255 0 24 10.745 24 24a24 24 0 0 1-.381 4.262l-2.401 13.308C418.039 59.186 402.706 72 384.806 72h-25.042V7.07l8.176-5.784A7 7 0 0 1 371.983 0z" opacity=".8"/><path d="M393.007 49.038l-11.628-8.182-20.246 14.164h28.857c9 0 17.815-6.886 20.435-15.677l1.727-8.363c1.97-9.538-4.165-15.98-13.702-15.98h-5.443v12.998h15.23l-15.23 10.25v10.79zM374.72 27.852h7.456l2.358-2.831h-12.093zm-3.812-4.877H386.3l2.358-2.83H368.63zm-6.263-7.968l2.279 3.001h23.5l2.359-3.001z" fill="#FFF"/></g></svg>