<svg width="24" height="24" xmlns="http://www.w3.org/2000/svg"><path d="M11.653 7.32l.052.865-.867-.106c-3.156-.406-5.913-1.783-8.254-4.095L1.439 2.836l-.294.848C.52 5.573.919 7.567 2.22 8.909c.693.742.537.848-.66.406-.415-.141-.78-.247-.814-.194-.122.124.294 1.73.624 2.366.45.882 1.37 1.747 2.376 2.26l.85.405-1.006.018c-.971 0-1.006.018-.902.389.347 1.147 1.717 2.365 3.243 2.895l1.075.37-.937.566a9.702 9.702 0 0 1-4.647 1.306c-.78.018-1.422.088-1.422.141 0 .177 2.116 1.165 3.347 1.554 3.694 1.147 8.08.653 11.376-1.307 2.34-1.394 4.682-4.166 5.774-6.85.59-1.43 1.18-4.042 1.18-5.296 0-.812.052-.918 1.023-1.889.572-.565 1.11-1.183 1.214-1.36.173-.335.156-.335-.729-.034-1.474.53-1.682.459-.953-.336.537-.565 1.179-1.589 1.179-1.889 0-.053-.26.035-.555.194-.312.177-1.006.442-1.526.6l-.937.3-.85-.582c-.468-.318-1.127-.67-1.473-.777-.885-.247-2.237-.212-3.035.07-2.168.795-3.538 2.843-3.382 5.085z" fill="currentColor" fill-rule="evenodd"/></svg>